<svg width="657.9px" height="121.4px" xmlns="http://www.w3.org/2000/svg" viewBox="-78.94687499999998 14.300000000000004 657.89375 121.39999999999999" style="background: rgba(0, 0, 0, 0)" preserveAspectRatio="xMidYMid"><defs><linearGradient id="editing-gradient-gradient" x1="0" x2="1" y1="0.5" y2="0.5" gradientUnits="objectBoundingBox"><stop offset="0" stop-color="#0018ff"></stop><stop offset="1" stop-color="#ff00ff"></stop></linearGradient></defs><g><g transform="matrix(1.3,0,0,1.5,-46.6,179.6)"><path d="M 5.6 -53.5 L -8.4 -53.5 L -0.3 -95.7 L 13.8 -95.7 L 5.6 -53.5 Z M 61.3 -52.2 L 61.3 -52.2 L 61.3 -52.2 Q 53.6 -52.2 53.6 -58.2 L 53.6 -58.2 L 53.6 -58.2 Q 53.6 -60.8 54.7 -65.9 L 54.7 -65.9 L 54.7 -65.9 Q 55.8 -71 56.2 -73.1 L 56.2 -73.1 L 56.2 -73.1 Q 57.1 -77.7 57.1 -79.2 L 57.1 -79.2 L 57.1 -79.2 Q 57.1 -82.5 54.6 -82.5 L 54.6 -82.5 L 54.6 -82.5 Q 53 -82.5 51.5 -80.3 L 51.5 -80.3 L 51.5 -80.3 Q 50 -78.1 49.3 -73.6 L 49.3 -73.6 L 45.3 -53.5 L 32.8 -52.2 L 36.3 -69.6 L 36.3 -69.6 Q 36.9 -72.5 37.4 -75.7 L 37.4 -75.7 L 37.4 -75.7 Q 37.9 -79 37.9 -79.5 L 37.9 -79.5 L 37.9 -79.5 Q 37.9 -82.5 35.7 -82.5 L 35.7 -82.5 L 35.7 -82.5 Q 34.2 -82.5 32.6 -80.3 L 32.6 -80.3 L 32.6 -80.3 Q 31 -78.1 30.1 -73.6 L 30.1 -73.6 L 26.2 -53.5 L 13.6 -52.2 L 20.3 -86.1 L 30.8 -87.4 L 29.7 -80.9 L 29.7 -80.9 Q 31.4 -84.4 34.4 -85.9 L 34.4 -85.9 L 34.4 -85.9 Q 37.5 -87.4 42.3 -87.4 L 42.3 -87.4 L 42.3 -87.4 Q 45 -87.4 46.8 -86.1 L 46.8 -86.1 L 46.8 -86.1 Q 48.6 -84.7 49.2 -82.5 L 49.2 -82.5 L 49.2 -82.5 Q 50.3 -84.8 53.1 -86.1 L 53.1 -86.1 L 53.1 -86.1 Q 55.9 -87.4 59.3 -87.4 L 59.3 -87.4 L 59.3 -87.4 Q 62.7 -87.4 64.4 -86.7 L 64.4 -86.7 L 64.4 -86.7 Q 66.1 -85.9 67.1 -84.7 L 67.1 -84.7 L 67.1 -84.7 Q 68.9 -82.5 68.9 -78.4 L 68.9 -78.4 L 68.9 -78.4 Q 68.9 -74.3 67.1 -66 L 67.1 -66 L 67.1 -66 Q 66.2 -61.9 66.2 -60.4 L 66.2 -60.4 L 66.2 -60.4 Q 66.2 -58.9 67.1 -58 L 67.1 -58 L 67.1 -58 Q 68 -57.1 69.2 -56.9 L 69.2 -56.9 L 69.2 -56.9 Q 68.6 -54.8 66.4 -53.5 L 66.4 -53.5 L 66.4 -53.5 Q 64.2 -52.2 61.3 -52.2 Z M 77 -55.4 L 77 -55.4 L 77 -55.4 Q 75.4 -57.1 74.8 -59.7 L 74.8 -59.7 L 74.8 -59.7 Q 74.1 -62.3 74.1 -66.6 L 74.1 -66.6 L 74.1 -66.6 Q 74.1 -70.9 75.6 -74.8 L 75.6 -74.8 L 75.6 -74.8 Q 77 -78.7 79.7 -81.5 L 79.7 -81.5 L 79.7 -81.5 Q 85.2 -87.4 94.3 -87.4 L 94.3 -87.4 L 94.3 -87.4 Q 97.6 -87.4 100 -86.3 L 100 -86.3 L 110.9 -87.4 L 106.2 -62.4 L 106.2 -62.4 Q 106 -61.7 106 -60.3 L 106 -60.3 L 106 -60.3 Q 106 -58.9 106.8 -58 L 106.8 -58 L 106.8 -58 Q 107.7 -57.1 109 -56.9 L 109 -56.9 L 109 -56.9 Q 108.3 -54.8 106 -53.5 L 106 -53.5 L 106 -53.5 Q 103.7 -52.2 101 -52.2 L 101 -52.2 L 101 -52.2 Q 98.4 -52.2 96.7 -53.2 L 96.7 -53.2 L 96.7 -53.2 Q 94.9 -54.2 94.4 -55.8 L 94.4 -55.8 L 94.4 -55.8 Q 93.4 -54.2 91.2 -53.2 L 91.2 -53.2 L 91.2 -53.2 Q 89 -52.2 86.1 -52.2 L 86.1 -52.2 L 86.1 -52.2 Q 83.2 -52.2 80.8 -53 L 80.8 -53 L 80.8 -53 Q 78.5 -53.7 77 -55.4 Z M 90.5 -81.4 L 90.5 -81.4 L 90.5 -81.4 Q 89.7 -80.2 89.1 -78.3 L 89.1 -78.3 L 89.1 -78.3 Q 88.4 -76.3 87.4 -71.1 L 87.4 -71.1 L 87.4 -71.1 Q 86.3 -65.9 86.3 -62.2 L 86.3 -62.2 L 86.3 -62.2 Q 86.3 -58.5 86.9 -57.4 L 86.9 -57.4 L 86.9 -57.4 Q 87.5 -56.3 88.5 -56.3 L 88.5 -56.3 L 88.5 -56.3 Q 90.6 -56.3 92.1 -58.2 L 92.1 -58.2 L 92.1 -58.2 Q 93.6 -60.2 94.1 -63.7 L 94.1 -63.7 L 97.5 -82.4 L 97.5 -82.4 Q 96.2 -83.6 94.6 -83.6 L 94.6 -83.6 L 94.6 -83.6 Q 93 -83.6 92.1 -83 L 92.1 -83 L 92.1 -83 Q 91.2 -82.5 90.5 -81.4 Z M 118.6 -80.2 L 118.6 -80.2 L 118.6 -80.2 Q 120.8 -83.3 124.1 -85.3 L 124.1 -85.3 L 124.1 -85.3 Q 127.4 -87.4 131.4 -87.4 L 131.4 -87.4 L 131.4 -87.4 Q 135.5 -87.4 137.4 -86.1 L 137.4 -86.1 L 149.9 -87.4 L 145.6 -62.8 L 145.6 -62.8 Q 143.4 -50.3 138.6 -45.3 L 138.6 -45.3 L 138.6 -45.3 Q 134.1 -40.7 125.2 -40.7 L 125.2 -40.7 L 125.2 -40.7 Q 118.5 -40.7 114.7 -42.8 L 114.7 -42.8 L 114.7 -42.8 Q 110.8 -44.9 110.8 -48.4 L 110.8 -48.4 L 110.8 -48.4 Q 110.8 -51 112.8 -52.5 L 112.8 -52.5 L 112.8 -52.5 Q 114.8 -54.1 117.9 -54.1 L 117.9 -54.1 L 117.9 -54.1 Q 120.6 -54.1 122.6 -52.8 L 122.6 -52.8 L 122.6 -52.8 Q 123.8 -52.2 124.4 -51.3 L 124.4 -51.3 L 124.4 -51.3 Q 122.9 -50 122.9 -47.9 L 122.9 -47.9 L 122.9 -47.9 Q 122.9 -45.2 125.5 -45.2 L 125.5 -45.2 L 125.5 -45.2 Q 129.8 -45.2 132.2 -55.3 L 132.2 -55.3 L 132.2 -55.3 Q 132.9 -58 133.5 -60.8 L 133.5 -60.8 L 133.5 -60.8 Q 130.6 -57.3 124.1 -57.3 L 124.1 -57.3 L 124.1 -57.3 Q 119.5 -57.3 116.9 -59.4 L 116.9 -59.4 L 116.9 -59.4 Q 114.3 -61.6 114.3 -66.7 L 114.3 -66.7 L 114.3 -66.7 Q 114.3 -69.9 115.4 -73.5 L 115.4 -73.5 L 115.4 -73.5 Q 116.5 -77.2 118.6 -80.2 Z M 127 -66.5 L 127 -66.5 L 127 -66.5 Q 127 -62.2 129.2 -62.2 L 129.2 -62.2 L 129.2 -62.2 Q 130.7 -62.2 132.2 -63.8 L 132.2 -63.8 L 132.2 -63.8 Q 133.4 -65.2 133.8 -67.2 L 133.8 -67.2 L 137.1 -83.6 L 137.1 -83.6 Q 136.8 -83.7 136.4 -83.8 L 136.4 -83.8 L 136.4 -83.8 Q 135.8 -84.1 135 -84.1 L 135 -84.1 L 135 -84.1 Q 131.1 -84.1 128.8 -77.7 L 128.8 -77.7 L 128.8 -77.7 Q 127 -72.7 127 -66.5 Z M 178.4 -64.3 L 178.4 -64.3 L 178.4 -64.3 Q 180 -63.2 180 -60.8 L 180 -60.8 L 180 -60.8 Q 180 -58.4 178.7 -56.9 L 178.7 -56.9 L 178.7 -56.9 Q 177.5 -55.3 175.5 -54.3 L 175.5 -54.3 L 175.5 -54.3 Q 171.4 -52.2 167 -52.2 L 167 -52.2 L 167 -52.2 Q 162.6 -52.2 160 -53.2 L 160 -53.2 L 160 -53.2 Q 157.4 -54.1 155.7 -55.9 L 155.7 -55.9 L 155.7 -55.9 Q 152.3 -59.3 152.3 -65.5 L 152.3 -65.5 L 152.3 -65.5 Q 152.3 -75.2 157.6 -81.1 L 157.6 -81.1 L 157.6 -81.1 Q 163.2 -87.4 173 -87.4 L 173 -87.4 L 173 -87.4 Q 179.1 -87.4 182.1 -84.8 L 182.1 -84.8 L 182.1 -84.8 Q 184.3 -82.9 184.3 -79.8 L 184.3 -79.8 L 184.3 -79.8 Q 184.3 -68.5 164.9 -68.5 L 164.9 -68.5 L 164.9 -68.5 Q 164.6 -66.9 164.6 -65.4 L 164.6 -65.4 L 164.6 -65.4 Q 164.6 -62.5 165.9 -61.4 L 165.9 -61.4 L 165.9 -61.4 Q 167.2 -60.3 169.7 -60.3 L 169.7 -60.3 L 169.7 -60.3 Q 172.1 -60.3 174.7 -61.4 L 174.7 -61.4 L 174.7 -61.4 Q 177.3 -62.5 178.4 -64.3 Z M 165.3 -71.3 L 165.3 -71.3 L 165.3 -71.3 Q 169.8 -71.3 172.5 -74.1 L 172.5 -74.1 L 172.5 -74.1 Q 175.1 -76.8 175.1 -81.1 L 175.1 -81.1 L 175.1 -81.1 Q 175.1 -82.5 174.6 -83.3 L 174.6 -83.3 L 174.6 -83.3 Q 174 -84.1 172.9 -84.1 L 172.9 -84.1 L 172.9 -84.1 Q 171.8 -84.1 170.9 -83.7 L 170.9 -83.7 L 170.9 -83.7 Q 170 -83.3 169 -81.9 L 169 -81.9 L 169 -81.9 Q 166.6 -78.7 165.3 -71.3 Z M 205.6 -75.9 L 205.6 -75.9 L 205.6 -75.9 Q 206.5 -78.3 206.5 -80.4 L 206.5 -80.4 L 206.5 -80.4 Q 206.5 -84.1 203.4 -84.1 L 203.4 -84.1 L 203.4 -84.1 Q 201.8 -84.1 200.5 -82.7 L 200.5 -82.7 L 200.5 -82.7 Q 199.2 -81.3 199.2 -79.5 L 199.2 -79.5 L 199.2 -79.5 Q 199.2 -78.2 200.2 -77.2 L 200.2 -77.2 L 200.2 -77.2 Q 201.7 -75.7 205.5 -73.4 L 205.5 -73.4 L 205.5 -73.4 Q 209.3 -71.1 210.7 -69.3 L 210.7 -69.3 L 210.7 -69.3 Q 212.2 -67.4 212.2 -64.8 L 212.2 -64.8 L 212.2 -64.8 Q 212.2 -62.2 210.9 -59.8 L 210.9 -59.8 L 210.9 -59.8 Q 209.7 -57.4 207.4 -55.8 L 207.4 -55.8 L 207.4 -55.8 Q 202.6 -52.2 194.9 -52.2 L 194.9 -52.2 L 194.9 -52.2 Q 190.8 -52.2 187.6 -54.4 L 187.6 -54.4 L 187.6 -54.4 Q 184.4 -56.5 184.4 -59 L 184.4 -59 L 184.4 -59 Q 184.4 -61.5 186.2 -62.9 L 186.2 -62.9 L 186.2 -62.9 Q 188 -64.4 190.7 -64.4 L 190.7 -64.4 L 190.7 -64.4 Q 193.4 -64.4 195.1 -63.4 L 195.1 -63.4 L 195.1 -63.4 Q 194.2 -61.3 194.2 -59.9 L 194.2 -59.9 L 194.2 -59.9 Q 194.2 -55.7 197.8 -55.7 L 197.8 -55.7 L 197.8 -55.7 Q 199.4 -55.7 200.4 -56.6 L 200.4 -56.6 L 200.4 -56.6 Q 201.4 -57.6 201.4 -59.2 L 201.4 -59.2 L 201.4 -59.2 Q 201.4 -62.5 195.9 -66 L 195.9 -66 L 195.9 -66 Q 191.4 -68.9 190.4 -70.1 L 190.4 -70.1 L 190.4 -70.1 Q 188.7 -72.1 188.7 -74.7 L 188.7 -74.7 L 188.7 -74.7 Q 188.7 -77.2 189.9 -79.7 L 189.9 -79.7 L 189.9 -79.7 Q 191.1 -82.1 193.3 -83.8 L 193.3 -83.8 L 193.3 -83.8 Q 198 -87.4 206.1 -87.4 L 206.1 -87.4 L 206.1 -87.4 Q 210.3 -87.4 212.8 -85.7 L 212.8 -85.7 L 212.8 -85.7 Q 215.2 -84.1 215.2 -81.3 L 215.2 -81.3 L 215.2 -81.3 Q 215.2 -78.4 213.5 -76.8 L 213.5 -76.8 L 213.5 -76.8 Q 211.8 -75.2 208.8 -75.2 L 208.8 -75.2 L 208.8 -75.2 Q 206.6 -75.2 205.6 -75.9 Z M 256.7 -74.1 L 269.6 -75.2 L 269.6 -75.2 Q 265 -65.1 265 -53.4 L 265 -53.4 L 265 -53.4 Q 263.3 -52.2 260.8 -52.2 L 260.8 -52.2 L 260.8 -52.2 Q 258.2 -52.2 256.6 -53.4 L 256.6 -53.4 L 256.6 -53.4 Q 255 -54.6 254.7 -55.8 L 254.7 -55.8 L 254.7 -55.8 Q 253.1 -54.1 250.5 -53.2 L 250.5 -53.2 L 250.5 -53.2 Q 247.9 -52.2 245.2 -52.2 L 245.2 -52.2 L 245.2 -52.2 Q 242.4 -52.2 240 -53.1 L 240 -53.1 L 240 -53.1 Q 237.6 -54 235.8 -56 L 235.8 -56 L 235.8 -56 Q 231.7 -60.3 231.7 -68.6 L 231.7 -68.6 L 231.7 -68.6 Q 231.7 -81.4 238.5 -89.1 L 238.5 -89.1 L 238.5 -89.1 Q 245.6 -97 258 -97 L 258 -97 L 258 -97 Q 266.7 -97 269.8 -92.5 L 269.8 -92.5 L 269.8 -92.5 Q 270.7 -91.1 270.7 -89.4 L 270.7 -89.4 L 270.7 -89.4 Q 270.7 -87.7 270 -86.3 L 270 -86.3 L 270 -86.3 Q 269.2 -84.8 268.1 -83.7 L 268.1 -83.7 L 268.1 -83.7 Q 265.3 -81.1 261.9 -81.1 L 261.9 -81.1 L 261.9 -81.1 Q 260.6 -81.1 259.3 -81.6 L 259.3 -81.6 L 259.3 -81.6 Q 259.6 -83.5 259.6 -85.7 L 259.6 -85.7 L 259.6 -85.7 Q 259.6 -88 259.4 -89 L 259.4 -89 L 259.4 -89 Q 259.3 -90 258.9 -90.9 L 258.9 -90.9 L 258.9 -90.9 Q 258 -92.6 256.2 -92.6 L 256.2 -92.6 L 256.2 -92.6 Q 254.4 -92.6 252.4 -90.6 L 252.4 -90.6 L 252.4 -90.6 Q 250.4 -88.7 248.8 -85.5 L 248.8 -85.5 L 248.8 -85.5 Q 245.2 -78.3 245.2 -69.7 L 245.2 -69.7 L 245.2 -69.7 Q 245.2 -65.7 246.8 -62.9 L 246.8 -62.9 L 246.8 -62.9 Q 248.4 -59.8 251.4 -59.8 L 251.4 -59.8 L 251.4 -59.8 Q 252.4 -59.8 253.3 -60.3 L 253.3 -60.3 L 253.3 -60.3 Q 254.3 -60.8 254.6 -61.2 L 254.6 -61.2 L 256.7 -74.1 Z M 275.5 -55.4 L 275.5 -55.4 L 275.5 -55.4 Q 274 -57.1 273.4 -59.7 L 273.4 -59.7 L 273.4 -59.7 Q 272.7 -62.3 272.7 -66.6 L 272.7 -66.6 L 272.7 -66.6 Q 272.7 -70.9 274.2 -74.8 L 274.2 -74.8 L 274.2 -74.8 Q 275.6 -78.7 278.3 -81.5 L 278.3 -81.5 L 278.3 -81.5 Q 283.8 -87.4 292.9 -87.4 L 292.9 -87.4 L 292.9 -87.4 Q 296.2 -87.4 298.6 -86.3 L 298.6 -86.3 L 309.5 -87.4 L 304.8 -62.4 L 304.8 -62.4 Q 304.6 -61.7 304.6 -60.3 L 304.6 -60.3 L 304.6 -60.3 Q 304.6 -58.9 305.4 -58 L 305.4 -58 L 305.4 -58 Q 306.3 -57.1 307.6 -56.9 L 307.6 -56.9 L 307.6 -56.9 Q 306.9 -54.8 304.6 -53.5 L 304.6 -53.5 L 304.6 -53.5 Q 302.3 -52.2 299.6 -52.2 L 299.6 -52.2 L 299.6 -52.2 Q 297 -52.2 295.3 -53.2 L 295.3 -53.2 L 295.3 -53.2 Q 293.5 -54.2 293 -55.8 L 293 -55.8 L 293 -55.8 Q 292 -54.2 289.8 -53.2 L 289.8 -53.2 L 289.8 -53.2 Q 287.6 -52.2 284.7 -52.2 L 284.7 -52.2 L 284.7 -52.2 Q 281.8 -52.2 279.4 -53 L 279.4 -53 L 279.4 -53 Q 277 -53.7 275.5 -55.4 Z M 289 -81.4 L 289 -81.4 L 289 -81.4 Q 288.3 -80.2 287.7 -78.3 L 287.7 -78.3 L 287.7 -78.3 Q 287 -76.3 286 -71.1 L 286 -71.1 L 286 -71.1 Q 284.9 -65.9 284.9 -62.2 L 284.9 -62.2 L 284.9 -62.2 Q 284.9 -58.5 285.5 -57.4 L 285.5 -57.4 L 285.5 -57.4 Q 286.1 -56.3 287.1 -56.3 L 287.1 -56.3 L 287.1 -56.3 Q 289.1 -56.3 290.6 -58.2 L 290.6 -58.2 L 290.6 -58.2 Q 292.2 -60.2 292.7 -63.7 L 292.7 -63.7 L 296.1 -82.4 L 296.1 -82.4 Q 294.8 -83.6 293.2 -83.6 L 293.2 -83.6 L 293.2 -83.6 Q 291.6 -83.6 290.7 -83 L 290.7 -83 L 290.7 -83 Q 289.8 -82.5 289 -81.4 Z M 328.2 -57 L 328.2 -57 L 328.2 -57 Q 326.3 -52.2 319.9 -52.2 L 319.9 -52.2 L 319.9 -52.2 Q 316.7 -52.2 314.7 -54.4 L 314.7 -54.4 L 314.7 -54.4 Q 313 -56.3 313 -58.4 L 313 -58.4 L 313 -58.4 Q 313 -63.2 315.3 -73.7 L 315.3 -73.7 L 319.9 -98.3 L 332.9 -99.6 L 326.7 -67.2 L 326.7 -67.2 Q 325.6 -62.4 325.6 -60.8 L 325.6 -60.8 L 325.6 -60.8 Q 325.6 -57.1 328.2 -57 Z M 349 -57 L 349 -57 L 349 -57 Q 347 -52.2 340.7 -52.2 L 340.7 -52.2 L 340.7 -52.2 Q 337.5 -52.2 335.4 -54.4 L 335.4 -54.4 L 335.4 -54.4 Q 333.8 -56.3 333.8 -58.4 L 333.8 -58.4 L 333.8 -58.4 Q 333.8 -63.2 336 -73.7 L 336 -73.7 L 340.7 -98.3 L 353.7 -99.6 L 347.4 -67.2 L 347.4 -67.2 Q 346.4 -62.4 346.4 -60.8 L 346.4 -60.8 L 346.4 -60.8 Q 346.4 -57.1 349 -57 Z M 380.3 -64.3 L 380.3 -64.3 L 380.3 -64.3 Q 381.9 -63.2 381.9 -60.8 L 381.9 -60.8 L 381.9 -60.8 Q 381.9 -58.4 380.7 -56.9 L 380.7 -56.9 L 380.7 -56.9 Q 379.5 -55.3 377.5 -54.3 L 377.5 -54.3 L 377.5 -54.3 Q 373.4 -52.2 369 -52.2 L 369 -52.2 L 369 -52.2 Q 364.6 -52.2 362 -53.2 L 362 -53.2 L 362 -53.2 Q 359.4 -54.1 357.7 -55.9 L 357.7 -55.9 L 357.7 -55.9 Q 354.3 -59.3 354.3 -65.5 L 354.3 -65.5 L 354.3 -65.5 Q 354.3 -75.2 359.5 -81.1 L 359.5 -81.1 L 359.5 -81.1 Q 365.2 -87.4 375 -87.4 L 375 -87.4 L 375 -87.4 Q 381 -87.4 384.1 -84.8 L 384.1 -84.8 L 384.1 -84.8 Q 386.3 -82.9 386.3 -79.8 L 386.3 -79.8 L 386.3 -79.8 Q 386.3 -68.5 366.8 -68.5 L 366.8 -68.5 L 366.8 -68.5 Q 366.6 -66.9 366.6 -65.4 L 366.6 -65.4 L 366.6 -65.4 Q 366.6 -62.5 367.9 -61.4 L 367.9 -61.4 L 367.9 -61.4 Q 369.2 -60.3 371.6 -60.3 L 371.6 -60.3 L 371.6 -60.3 Q 374.1 -60.3 376.7 -61.4 L 376.7 -61.4 L 376.7 -61.4 Q 379.3 -62.5 380.3 -64.3 Z M 367.3 -71.3 L 367.3 -71.3 L 367.3 -71.3 Q 371.8 -71.3 374.5 -74.1 L 374.5 -74.1 L 374.5 -74.1 Q 377.1 -76.8 377.1 -81.1 L 377.1 -81.1 L 377.1 -81.1 Q 377.1 -82.5 376.5 -83.3 L 376.5 -83.3 L 376.5 -83.3 Q 376 -84.1 374.9 -84.1 L 374.9 -84.1 L 374.9 -84.1 Q 373.8 -84.1 372.9 -83.7 L 372.9 -83.7 L 372.9 -83.7 Q 372 -83.3 371 -81.9 L 371 -81.9 L 371 -81.9 Q 368.6 -78.7 367.3 -71.3 Z M 408.5 -71.5 L 408.5 -71.5 L 408.5 -71.5 Q 410.8 -75.6 410.8 -79.7 L 410.8 -79.7 L 410.8 -79.7 Q 410.8 -82.5 408.8 -82.5 L 408.8 -82.5 L 408.8 -82.5 Q 407.3 -82.5 405.7 -79.8 L 405.7 -79.8 L 405.7 -79.8 Q 404 -77.2 403.5 -73.8 L 403.5 -73.8 L 400.2 -53.5 L 386.9 -52.2 L 393.5 -86.1 L 404 -87.4 L 402.9 -80.9 L 402.9 -80.9 Q 406 -87.4 413 -87.4 L 413 -87.4 L 413 -87.4 Q 416.8 -87.4 418.8 -85.5 L 418.8 -85.5 L 418.8 -85.5 Q 420.8 -83.6 420.8 -79.6 L 420.8 -79.6 L 420.8 -79.6 Q 420.8 -75.7 418.2 -73.2 L 418.2 -73.2 L 418.2 -73.2 Q 415.6 -70.7 411.2 -70.7 L 411.2 -70.7 L 411.2 -70.7 Q 409.3 -70.7 408.5 -71.5 Z M 442.2 -60.7 L 442.2 -60.7 L 442.2 -60.7 Q 438.8 -57.3 432.8 -57.3 L 432.8 -57.3 L 432.8 -57.3 Q 425.1 -57.3 423.5 -62.8 L 423.5 -62.8 L 423.5 -62.8 Q 423 -64.5 423 -66.3 L 423 -66.3 L 423 -66.3 Q 423 -68.2 423.4 -70.1 L 423.4 -70.1 L 426.4 -86.1 L 439.4 -87.4 L 435.9 -68.8 L 435.9 -68.8 Q 435.8 -67.9 435.6 -67 L 435.6 -67 L 435.6 -67 Q 435.4 -66.1 435.4 -65.2 L 435.4 -65.2 L 435.4 -65.2 Q 435.4 -64.3 435.7 -63.7 L 435.7 -63.7 L 435.7 -63.7 Q 436 -63.1 436.5 -62.7 L 436.5 -62.7 L 436.5 -62.7 Q 437.2 -62.2 438.6 -62.2 L 438.6 -62.2 L 438.6 -62.2 Q 440 -62.2 441.2 -63.8 L 441.2 -63.8 L 441.2 -63.8 Q 442.4 -65.5 442.9 -68.4 L 442.9 -68.4 L 446.5 -86.1 L 459.1 -87.4 L 454.3 -62.2 L 454.3 -62.2 Q 451.9 -50 447 -45.1 L 447 -45.1 L 447 -45.1 Q 444.5 -42.6 441.3 -41.6 L 441.3 -41.6 L 441.3 -41.6 Q 438.1 -40.6 433.9 -40.6 L 433.9 -40.6 L 433.9 -40.6 Q 427.2 -40.6 423.4 -42.7 L 423.4 -42.7 L 423.4 -42.7 Q 419.5 -44.8 419.5 -48.4 L 419.5 -48.4 L 419.5 -48.4 Q 419.5 -51 421.5 -52.5 L 421.5 -52.5 L 421.5 -52.5 Q 423.5 -54 426.6 -54 L 426.6 -54 L 426.6 -54 Q 429.2 -54 431.3 -52.8 L 431.3 -52.8 L 431.3 -52.8 Q 432.5 -52.1 433.1 -51.2 L 433.1 -51.2 L 433.1 -51.2 Q 431.6 -50 431.6 -47.8 L 431.6 -47.8 L 431.6 -47.8 Q 431.6 -45 434.2 -45 L 434.2 -45 L 434.2 -45 Q 438.4 -45 440.8 -54.8 L 440.8 -54.8 L 440.8 -54.8 Q 441.5 -57.6 442.2 -60.7 Z" fill="url(#editing-gradient-gradient)"></path></g></g><style>text {
  font-size: 64px;
  font-family: Arial Black;
  dominant-baseline: central;
  text-anchor: middle;
}</style></svg>